#format: frame checksums
#version: 2
#hash: MD5
#tb 0: 1/16000
#media_type 0: audio
#codec_id 0: pcm_s16le
#sample_rate 0: 16000
#channel_layout 0: 4
#stream#, dts,        pts, duration,     size, hash
0,          0,          0,     8192,    16384, 1dd9c285eb608038f3257d1a8e02eb75
0,       8192,       8192,     8192,    16384, f7459334cbe70c06bc0897edfe64e840
0,      16384,      16384,     8192,    16384, 486e7d07c8879ccd304689ad61911e5d
0,      24576,      24576,     8192,    16384, 5178262fdeff11dc025c72a2678e420d
0,      32768,      32768,     8192,    16384, 913f8208615dcd643edafda7db1eb943
0,      40960,      40960,     8192,    16384, 0b8dc719670feac586db87bf3a92cc2a
0,      49152,      49152,     8192,    16384, 075dc5022f5e9f1cb2fcd066e590fed1
0,      57344,      57344,     8192,    16384, a6494307ecb1359ff42d6e05cf40ca4c
0,      65536,      65536,     8192,    16384, 5b28d3b0d6d2bfe7100daeefcb3010ec
0,      73728,      73728,     8192,    16384, b3cf1952b8a0d2e6a2741867e9fa8e24
0,      81920,      81920,     8192,    16384, f0981f8fa28bbc0ba6a527b041468951
0,      90112,      90112,     5888,    11776, 1e3d1b3d0da71aa2cdc00175cc47433a
